<svg id="Layer_1" data-name="Layer 1" xmlns="http://www.w3.org/2000/svg" xmlns:xlink="http://www.w3.org/1999/xlink" viewBox="0 0 1080 1080"><defs><style>.cls-1,.cls-4{fill:#231f20;}.cls-2{fill:#2d2d2d;stroke:url(#New_Gradient_Swatch);}.cls-2,.cls-3,.cls-4{stroke-miterlimit:10;}.cls-3{fill:#444;stroke:url(#New_Gradient_Swatch-2);}.cls-4{stroke:url(#New_Gradient_Swatch-3);}.cls-5{fill:none;}.cls-6{fill:url(#linear-gradient);}.cls-7{fill:url(#linear-gradient-2);}.cls-8{fill:url(#linear-gradient-3);}.cls-9{fill:url(#linear-gradient-4);}.cls-10{fill:url(#linear-gradient-5);}.cls-11{fill:url(#linear-gradient-6);}.cls-12{fill:url(#linear-gradient-7);}.cls-13{fill:url(#linear-gradient-8);}.cls-14{fill:url(#linear-gradient-9);}.cls-15{fill:url(#linear-gradient-10);}.cls-16{fill:#fff;}</style><linearGradient id="New_Gradient_Swatch" x1="208.82" y1="622.02" x2="494.92" y2="622.02" gradientUnits="userSpaceOnUse"><stop offset="0" stop-color="#ffe53b"/><stop offset="0.78" stop-color="#f9b61e"/></linearGradient><linearGradient id="New_Gradient_Swatch-2" x1="351.38" y1="498.99" x2="494.42" y2="498.99" xlink:href="#New_Gradient_Swatch"/><linearGradient id="New_Gradient_Swatch-3" x1="209.32" y1="498.99" x2="352.38" y2="498.99" xlink:href="#New_Gradient_Swatch"/><linearGradient id="linear-gradient" x1="204.66" y1="540" x2="499.08" y2="540" xlink:href="#New_Gradient_Swatch"/><linearGradient id="linear-gradient-2" x1="303.37" y1="455.33" x2="401.35" y2="455.33" xlink:href="#New_Gradient_Swatch"/><linearGradient id="linear-gradient-3" x1="352.36" y1="497.76" x2="401.35" y2="497.76" gradientUnits="userSpaceOnUse"><stop offset="0" stop-color="#ffe53b"/><stop offset="1" stop-color="#f9b61e"/></linearGradient><linearGradient id="linear-gradient-4" x1="303.37" y1="497.76" x2="352.36" y2="497.76" gradientUnits="userSpaceOnUse"><stop offset="0" stop-color="#bb8916"/><stop offset="0.78" stop-color="#f9b61e"/></linearGradient><linearGradient id="linear-gradient-5" x1="254.39" y1="540.18" x2="352.36" y2="540.18" xlink:href="#New_Gradient_Swatch"/><linearGradient id="linear-gradient-6" x1="303.38" y1="582.61" x2="352.36" y2="582.61" xlink:href="#linear-gradient-3"/><linearGradient id="linear-gradient-7" x1="254.39" y1="582.61" x2="303.38" y2="582.61" xlink:href="#linear-gradient-4"/><linearGradient id="linear-gradient-8" x1="352.36" y1="540.18" x2="450.34" y2="540.18" xlink:href="#New_Gradient_Swatch"/><linearGradient id="linear-gradient-9" x1="401.35" y1="582.61" x2="450.34" y2="582.61" xlink:href="#linear-gradient-3"/><linearGradient id="linear-gradient-10" x1="352.36" y1="582.61" x2="401.35" y2="582.61" xlink:href="#linear-gradient-4"/></defs><path class="cls-1" d="M543.93,455.5h13.63V472l18.55-16.52h20.06l-19.59,16.75,19.59,24.88H579.59L566.78,480.6l-9.22,7.83v8.7H543.93Z"/><path class="cls-1" d="M601.45,455.5h20.18L642.91,484V455.5h13.62v41.63H636.36l-21.28-28.59v28.59H601.45Z"/><path class="cls-1" d="M662.27,476.31c0-13.22,11.48-21.8,29.17-21.8s29.22,8.58,29.22,21.8-11.42,22-29.22,22S662.27,489.65,662.27,476.31Zm29.17,10.5c9.22,0,15.07-4.18,15.07-10.5s-5.85-10.38-15.07-10.38-15,4.12-15,10.38S682.33,486.81,691.44,486.81Z"/><path class="cls-1" d="M721.82,455.5h13.74l10.15,31.42L758,455.5h18l12.29,31.42,10.15-31.42h13.74l-13.8,41.63h-19.6l-11.77-30.68-11.77,30.68H735.62Z"/><path class="cls-1" d="M543.93,514.83h32.18c10.85,0,14.27,4.18,14.27,10.21,0,5-2.9,8.12-7.19,9.63,5.22,1.33,9.56,4.23,9.56,10.32,0,6.78-4,11.48-14.26,11.48H543.93Zm27.89,16.65c2.84,0,4.93-.24,4.93-3.48s-2-3.31-4.93-3.31H557.56v6.79Zm2.32,15.13c2.49,0,4.47-.17,4.47-3.42s-2.09-3.42-4.47-3.42H557.56v6.84Z"/><path class="cls-1" d="M597.62,514.83h13.63V545H639v11.48h-41.4Z"/><path class="cls-1" d="M642.21,535.65c0-13.22,11.48-21.8,29.17-21.8s29.22,8.58,29.22,21.8-11.42,22-29.22,22S642.21,549,642.21,535.65Zm29.17,10.5c9.22,0,15.07-4.18,15.07-10.5s-5.85-10.38-15.07-10.38-15,4.12-15,10.38S662.27,546.15,671.38,546.15Z"/><path class="cls-1" d="M705.76,535.65c0-13.22,11-21.8,27.66-21.8,15.42,0,26.26,7.13,27.37,17.8h-14.5c-.7-3.6-5.68-6.38-12.87-6.38-8.18,0-13.45,4.18-13.45,10.38s5.27,10.5,13.45,10.5c7.19,0,12.17-2.79,12.87-6.44h14.5c-1.11,10.78-11.95,17.92-27.37,17.92C716.72,557.63,705.76,549,705.76,535.65Z"/><path class="cls-1" d="M766.53,514.83h13.62v16.53l18.56-16.53h20.06l-19.6,16.76,19.6,24.88H802.19l-12.82-16.53-9.22,7.83v8.7H766.53Z"/><path class="cls-1" d="M820,542.72h14.14c0,3,3.13,5,12.18,5,9.22,0,11-1.28,11-3.48,0-2.55-1.57-3.07-11.66-3.71l-2-.12c-15.94-.92-23-4.87-23-13.8,0-8.52,9.11-12.81,23.43-12.81,16.35,0,25.11,5,25.63,14.2H855.53c0-3.18-3.77-4.34-11.6-4.34-7.36,0-9.16,1.16-9.16,2.95,0,2.15,1.57,3,10.9,3.6l2.38.17c14.2,1.1,23.37,2.61,23.37,13.34,0,10.49-9.17,13.86-24.53,13.86C830.13,557.63,820.51,553.63,820,542.72Z"/><path class="cls-1" d="M543.93,574.17h21.28l12.35,25.92,12.29-25.92h21.23v41.64H597.45V587.1l-13.57,28.71h-12.7L557.56,587.1v28.71H543.93Z"/><path class="cls-1" d="M637.05,574.17h17.4l21.28,41.64H661.17l-3.65-7.72h-23.6l-3.71,7.72h-14.5Zm15.77,24.12-7.13-14.9-7.13,14.9Z"/><path class="cls-1" d="M668.25,574.17h14.49l15.48,32.42,15.48-32.42h14.56l-20.35,41.64H688.48Z"/><path class="cls-1" d="M732.84,574.17H775.4v10.27H746.46v5.85h27.78v9.34H746.46v5.91H775.4v10.27H732.84Z"/><path class="cls-1" d="M781.72,574.17h20.17l21.28,28.53V574.17H836.8v41.64H816.62l-21.28-28.59v28.59H781.72Z"/><path class="cls-1" d="M817.59,482.38h17.73v4.11H828.9v10.8H824v-10.8h-6.44Z"/><path class="cls-1" d="M837.35,482.38h4.87v5.4h8.93v-5.4H856v14.91h-4.87v-5.42h-8.93v5.42h-4.87Z"/><path class="cls-1" d="M858.86,482.38h15.23v3.68H863.74v2.09h9.94v3.35h-9.94v2.11h10.35v3.68H858.86Z"/><polygon class="cls-2" points="493.92 622.01 351.88 704.03 209.82 622.01 351.88 540 493.92 622.01"/><polygon class="cls-3" points="493.92 457.99 493.92 622.01 351.88 540 351.88 375.97 493.92 457.99"/><polygon class="cls-4" points="351.88 375.97 351.88 540 209.82 622.01 209.82 457.99 351.88 375.97"/><polygon class="cls-5" points="351.87 548.72 349.67 549.95 349.67 547.49 351.87 548.72"/><path class="cls-6" d="M351.87,706.27a24,24,0,0,1-12-3.2L216.63,631.9a24,24,0,0,1-12-20.73V468.83a24,24,0,0,1,12-20.73L339.9,376.93a24,24,0,0,1,23.94,0L487.11,448.1a24,24,0,0,1,12,20.73V611.17a24,24,0,0,1-12,20.73L363.84,703.07A24,24,0,0,1,351.87,706.27Zm0-322.23a13.66,13.66,0,0,0-6.81,1.82L221.79,457a13.67,13.67,0,0,0-6.81,11.8V611.17a13.67,13.67,0,0,0,6.81,11.8l123.27,71.17a13.65,13.65,0,0,0,13.63,0L482,623a13.67,13.67,0,0,0,6.81-11.8V468.83A13.67,13.67,0,0,0,482,457L358.69,385.86A13.69,13.69,0,0,0,351.87,384Z"/><polygon class="cls-7" points="401.35 455.33 352.36 427.05 303.38 455.33 352.36 483.62 401.35 455.33"/><polygon class="cls-8" points="401.35 511.9 401.35 455.33 352.36 483.62 352.36 540.19 401.35 511.9"/><polygon class="cls-9" points="352.36 540.19 352.36 483.62 303.38 455.33 303.38 511.9 352.36 540.19"/><polygon class="cls-10" points="352.36 540.18 303.38 511.9 254.39 540.18 303.38 568.47 352.36 540.18"/><polygon class="cls-11" points="352.36 596.75 352.36 540.18 303.38 568.47 303.38 625.04 352.36 596.75"/><polygon class="cls-12" points="303.38 625.04 303.38 568.47 254.39 540.18 254.39 596.75 303.38 625.04"/><polygon class="cls-13" points="450.34 540.18 401.35 511.9 352.36 540.18 401.35 568.47 450.34 540.18"/><polygon class="cls-14" points="450.34 596.75 450.34 540.18 401.35 568.47 401.35 625.04 450.34 596.75"/><polygon class="cls-15" points="401.35 625.04 401.35 568.47 352.36 540.18 352.36 596.75 401.35 625.04"/><polygon class="cls-5" points="358.48 529.24 394.74 508.31 394.74 466.44 358.48 487.37 358.48 529.24"/><polygon class="cls-5" points="345.75 487.37 309.49 466.44 309.49 508.31 345.75 529.24 345.75 487.37"/><polygon class="cls-5" points="352.12 434.48 315.86 455.42 352.12 476.35 388.37 455.42 352.12 434.48"/><path class="cls-16" d="M300.65,513.41l51.47,29.71,51.45-29.71V454l-51.45-29.71L300.65,454Zm98-2.85-44,25.42V485.12l44-25.42ZM352.12,430l44,25.43-44,25.42-44.05-25.42ZM305.6,459.7l44,25.42V536l-44-25.43Z"/><path class="cls-16" d="M352.12,432.24,312,455.42l40.16,23.18,40.14-23.18Zm-36.26,23.18,36.26-20.94,36.25,20.94-36.25,20.93Z"/><path class="cls-16" d="M396.68,463.07l-40.15,23.18v46.36l40.15-23.18Zm-1.94,45.24-36.26,20.93V487.37l36.26-20.93Z"/><path class="cls-16" d="M307.55,509.43l40.15,23.18V486.25l-40.15-23.18Zm1.94-43,36.26,20.93v41.87l-36.26-20.93Z"/><polygon class="cls-5" points="309.74 613.93 345.99 593 345.99 551.13 309.74 572.06 309.74 613.93"/><polygon class="cls-5" points="297 572.06 260.75 551.13 260.75 593 297 613.93 297 572.06"/><polygon class="cls-5" points="303.37 519.17 267.12 540.1 303.37 561.03 339.63 540.1 303.37 519.17"/><path class="cls-16" d="M251.91,598.1l51.46,29.71,51.46-29.71V538.67L303.37,509l-51.46,29.71Zm98-2.86-44.05,25.43V569.81l44.05-25.42Zm-46.52-80.57,44.05,25.43-44.05,25.43-44-25.43Zm-46.52,29.72,44,25.42v50.86l-44-25.43Z"/><path class="cls-16" d="M303.37,516.92,263.22,540.1l40.15,23.18,40.15-23.18ZM267.12,540.1l36.25-20.93,36.25,20.93L303.37,561Z"/><path class="cls-16" d="M347.94,547.76l-40.15,23.18V617.3l40.15-23.18ZM346,593l-36.25,20.94V572.06L346,551.13Z"/><path class="cls-16" d="M258.8,594.12,299,617.3V570.94L258.8,547.76Zm1.95-43L297,572.06v41.87L260.75,593Z"/><polygon class="cls-5" points="407.72 613.93 443.98 593 443.98 551.13 407.72 572.06 407.72 613.93"/><polygon class="cls-5" points="394.99 572.06 358.73 551.13 358.73 593 394.99 613.93 394.99 572.06"/><polygon class="cls-5" points="401.36 519.17 365.1 540.1 401.36 561.03 437.61 540.1 401.36 519.17"/><path class="cls-16" d="M349.89,598.1l51.47,29.71,51.46-29.71V538.67L401.36,509l-51.47,29.71Zm98-2.86-44,25.43V569.81l44-25.42Zm-46.51-80.57,44,25.43-44,25.43L357.31,540.1Zm-46.52,29.72,44,25.42v50.86l-44-25.43Z"/><path class="cls-16" d="M401.36,516.92,361.21,540.1l40.15,23.18L441.5,540.1ZM365.1,540.1l36.26-20.93,36.25,20.93L401.36,561Z"/><path class="cls-16" d="M445.92,547.76l-40.14,23.18V617.3l40.14-23.18ZM444,593l-36.26,20.94V572.06L444,551.13Z"/><path class="cls-16" d="M356.79,594.12l40.15,23.18V570.94l-40.15-23.18Zm1.94-43L395,572.06v41.87L358.73,593Z"/></svg>