<svg id="Layer_1" data-name="Layer 1" xmlns="http://www.w3.org/2000/svg" xmlns:xlink="http://www.w3.org/1999/xlink" viewBox="0 0 1080 1080"><defs><style>.cls-1{fill:#2d2d2d;stroke:url(#New_Gradient_Swatch);}.cls-1,.cls-2,.cls-3{stroke-miterlimit:10;}.cls-2{fill:#444;stroke:url(#New_Gradient_Swatch-2);}.cls-3{fill:#231f20;stroke:url(#New_Gradient_Swatch-3);}.cls-4{fill:none;}.cls-5{fill:url(#linear-gradient);}.cls-6{fill:url(#linear-gradient-2);}.cls-7{fill:url(#linear-gradient-3);}.cls-8{fill:url(#linear-gradient-4);}.cls-9{fill:url(#linear-gradient-5);}.cls-10{fill:url(#linear-gradient-6);}.cls-11{fill:url(#linear-gradient-7);}.cls-12{fill:url(#linear-gradient-8);}.cls-13{fill:url(#linear-gradient-9);}.cls-14{fill:url(#linear-gradient-10);}.cls-15{fill:#fff;}</style><linearGradient id="New_Gradient_Swatch" x1="369.69" y1="637.76" x2="710.31" y2="637.76" gradientUnits="userSpaceOnUse"><stop offset="0" stop-color="#ffe53b"/><stop offset="0.78" stop-color="#f9b61e"/></linearGradient><linearGradient id="New_Gradient_Swatch-2" x1="539.5" y1="491.12" x2="709.81" y2="491.12" xlink:href="#New_Gradient_Swatch"/><linearGradient id="New_Gradient_Swatch-3" x1="370.19" y1="491.12" x2="540.5" y2="491.12" xlink:href="#New_Gradient_Swatch"/><linearGradient id="linear-gradient" x1="364.54" y1="540" x2="715.46" y2="540" xlink:href="#New_Gradient_Swatch"/><linearGradient id="linear-gradient-2" x1="482.19" y1="439.08" x2="598.97" y2="439.08" xlink:href="#New_Gradient_Swatch"/><linearGradient id="linear-gradient-3" x1="540.59" y1="489.65" x2="598.97" y2="489.65" gradientUnits="userSpaceOnUse"><stop offset="0" stop-color="#ffe53b"/><stop offset="1" stop-color="#f9b61e"/></linearGradient><linearGradient id="linear-gradient-4" x1="482.19" y1="489.65" x2="540.59" y2="489.65" gradientUnits="userSpaceOnUse"><stop offset="0" stop-color="#bb8916"/><stop offset="0.78" stop-color="#f9b61e"/></linearGradient><linearGradient id="linear-gradient-5" x1="423.8" y1="540.22" x2="540.58" y2="540.22" xlink:href="#New_Gradient_Swatch"/><linearGradient id="linear-gradient-6" x1="482.2" y1="590.79" x2="540.58" y2="590.79" xlink:href="#linear-gradient-3"/><linearGradient id="linear-gradient-7" x1="423.8" y1="590.79" x2="482.2" y2="590.79" xlink:href="#linear-gradient-4"/><linearGradient id="linear-gradient-8" x1="540.58" y1="540.22" x2="657.36" y2="540.22" xlink:href="#New_Gradient_Swatch"/><linearGradient id="linear-gradient-9" x1="598.98" y1="590.79" x2="657.36" y2="590.79" xlink:href="#linear-gradient-3"/><linearGradient id="linear-gradient-10" x1="540.58" y1="590.79" x2="598.98" y2="590.79" xlink:href="#linear-gradient-4"/></defs><polygon class="cls-1" points="709.31 637.75 540 735.51 370.69 637.75 540 540 709.31 637.75"/><polygon class="cls-2" points="709.31 442.25 709.31 637.75 540 540 540 344.49 709.31 442.25"/><polygon class="cls-3" points="540 344.49 540 540 370.69 637.75 370.69 442.25 540 344.49"/><polygon class="cls-4" points="540 550.39 537.38 551.86 537.38 548.92 540 550.39"/><path class="cls-5" d="M540,738.18a28.55,28.55,0,0,1-14.27-3.81L378.81,649.54a28.62,28.62,0,0,1-14.27-24.71V455.17a28.62,28.62,0,0,1,14.27-24.71l146.92-84.83a28.63,28.63,0,0,1,28.54,0l146.92,84.83a28.62,28.62,0,0,1,14.27,24.71V624.83a28.62,28.62,0,0,1-14.27,24.71L554.27,734.37A28.55,28.55,0,0,1,540,738.18Zm0-384.07a16.18,16.18,0,0,0-8.12,2.17L385,441.11a16.28,16.28,0,0,0-8.12,14.06V624.83A16.28,16.28,0,0,0,385,638.89l146.93,84.83a16.29,16.29,0,0,0,16.24,0l146.93-84.83a16.28,16.28,0,0,0,8.12-14.06V455.17a16.28,16.28,0,0,0-8.12-14.06L548.12,356.28A16.18,16.18,0,0,0,540,354.11Z"/><polygon class="cls-6" points="598.97 439.09 540.59 405.37 482.19 439.09 540.59 472.8 598.97 439.09"/><polygon class="cls-7" points="598.97 506.51 598.97 439.09 540.59 472.8 540.59 540.22 598.97 506.51"/><polygon class="cls-8" points="540.59 540.22 540.59 472.8 482.19 439.09 482.19 506.51 540.59 540.22"/><polygon class="cls-9" points="540.58 540.22 482.2 506.51 423.81 540.22 482.2 573.93 540.58 540.22"/><polygon class="cls-10" points="540.58 607.64 540.58 540.22 482.2 573.93 482.2 641.36 540.58 607.64"/><polygon class="cls-11" points="482.2 641.36 482.2 573.93 423.81 540.22 423.81 607.64 482.2 641.36"/><polygon class="cls-12" points="657.36 540.22 598.98 506.51 540.58 540.22 598.98 573.93 657.36 540.22"/><polygon class="cls-13" points="657.36 607.64 657.36 540.22 598.98 573.93 598.98 641.36 657.36 607.64"/><polygon class="cls-14" points="598.98 641.36 598.98 573.93 540.58 540.22 540.58 607.64 598.98 641.36"/><polygon class="cls-4" points="547.88 527.17 591.09 502.23 591.09 452.33 547.88 477.27 547.88 527.17"/><polygon class="cls-4" points="532.7 477.27 489.49 452.33 489.49 502.23 532.7 527.17 532.7 477.27"/><polygon class="cls-4" points="540.29 414.23 497.08 439.18 540.29 464.13 583.5 439.18 540.29 414.23"/><path class="cls-15" d="M479,508.31l61.34,35.41,61.33-35.41V437.48l-61.33-35.41L479,437.48Zm116.78-3.4-52.49,30.3V474.59l52.49-30.3Zm-55.44-96,52.49,30.31-52.49,30.31-52.5-30.31Zm-55.45,35.42,52.5,30.3v60.62l-52.5-30.3Z"/><path class="cls-15" d="M540.29,411.55l-47.86,27.63,47.86,27.63,47.85-27.63Zm-43.21,27.63,43.21-24.95,43.21,24.95-43.21,24.95Z"/><path class="cls-15" d="M593.41,448.31l-47.85,27.62v55.26l47.85-27.62Zm-2.32,53.92-43.21,24.94v-49.9l43.21-24.94Z"/><path class="cls-15" d="M487.17,503.57,535,531.19V475.93l-47.85-27.62Zm2.32-51.24,43.21,24.94v49.9l-43.21-24.94Z"/><polygon class="cls-4" points="489.78 628.11 532.99 603.16 532.99 553.27 489.78 578.21 489.78 628.11"/><polygon class="cls-4" points="474.6 578.21 431.39 553.27 431.39 603.16 474.6 628.11 474.6 578.21"/><polygon class="cls-4" points="482.19 515.17 438.98 540.12 482.19 565.07 525.4 540.12 482.19 515.17"/><path class="cls-15" d="M420.85,609.25l61.34,35.41,61.34-35.41V538.42L482.19,503l-61.34,35.41Zm116.78-3.4-52.49,30.3V575.53l52.49-30.3Zm-55.44-96,52.5,30.31-52.5,30.31-52.5-30.31Zm-55.44,35.42,52.5,30.3v60.62l-52.5-30.3Z"/><path class="cls-15" d="M482.19,512.49l-47.85,27.63,47.85,27.63L530,540.12ZM439,540.12l43.21-25,43.21,25-43.21,25Z"/><path class="cls-15" d="M535.31,549.25l-47.85,27.62v55.26l47.85-27.62ZM533,603.17l-43.21,24.94v-49.9L533,553.27Z"/><path class="cls-15" d="M429.07,604.51l47.85,27.62V576.87l-47.85-27.62Zm2.32-51.24,43.21,24.94v49.9l-43.21-24.94Z"/><polygon class="cls-4" points="606.57 628.11 649.78 603.16 649.78 553.27 606.57 578.21 606.57 628.11"/><polygon class="cls-4" points="591.39 578.21 548.18 553.27 548.18 603.16 591.39 628.11 591.39 578.21"/><polygon class="cls-4" points="598.98 515.17 555.77 540.12 598.98 565.07 642.19 540.12 598.98 515.17"/><path class="cls-15" d="M537.64,609.25,599,644.66l61.33-35.41V538.42L599,503l-61.34,35.41Zm116.78-3.4-52.49,30.3V575.53l52.49-30.3Zm-55.44-96,52.49,30.31L599,570.43l-52.5-30.31Zm-55.45,35.42,52.5,30.3v60.62l-52.5-30.3Z"/><path class="cls-15" d="M599,512.49l-47.86,27.63L599,567.75l47.85-27.63Zm-43.21,27.63,43.21-25,43.21,25-43.21,25Z"/><path class="cls-15" d="M652.1,549.25l-47.85,27.62v55.26l47.85-27.62Zm-2.32,53.92-43.21,24.94v-49.9l43.21-24.94Z"/><path class="cls-15" d="M545.86,604.51l47.85,27.62V576.87l-47.85-27.62Zm2.32-51.24,43.21,24.94v49.9l-43.21-24.94Z"/><path class="cls-15" d="M357.81,422.77c-.72-.88-.46-1.79.79-2.82s2.16-1.09,2.89-.21.5,1.8-.74,2.82S358.56,423.67,357.81,422.77Z"/><path class="cls-15" d="M390.31,395.2l2-1.16,3.31,5.72,4-9.94,3-1.73-3,7.53,9.11,3.07-2.46,1.42-7.46-2.47L397,402.17l1.43,2.46-2,1.16Z"/><path class="cls-15" d="M404.42,387.06l2.94-1.7,13.08,4.16-5.07-8.78,2-1.15,6.12,10.59-2.93,1.69-13.08-4.16,5.07,8.78-2,1.16Z"/><path class="cls-15" d="M422.33,383.76c-1.94-3.38-.47-7.13,3.82-9.61s8.27-1.85,10.21,1.52.5,7.17-3.77,9.64S424.29,387.15,422.33,383.76Zm9.28-.15c3.06-1.77,4-4.45,2.69-6.76s-4.1-2.79-7.18-1-4,4.44-2.71,6.72S428.53,385.38,431.61,383.61Z"/><path class="cls-15" d="M433.92,370l2-1.18,8.8,7.07-.93-11.61,2.62-1.51,9.61,6.6-1.72-11.15,2-1.18,2,13-2.79,1.62L446,365.05l1,11.56-2.8,1.61Z"/><path class="cls-15" d="M470.25,349.05,482.47,342l1,1.7-5.11,2.95,5.13,8.89-2,1.14-5.13-8.89-5.12,3Z"/><path class="cls-15" d="M484.16,341l2-1.15,2.57,4.45,8.49-4.9L494.65,335l2-1.15,6.11,10.59-2,1.15-2.57-4.45-8.48,4.9,2.57,4.45-2,1.15Z"/><path class="cls-15" d="M499.17,332.35l10.43-6,.89,1.54-8.43,4.86,1.75,3,8.13-4.69.83,1.44-8.13,4.69,1.75,3,8.43-4.86.89,1.55-10.42,6Z"/><path class="cls-15" d="M559.62,320.11l8,4.59c2.52,1.46,2.82,3.12,1.94,4.65a2.91,2.91,0,0,1-3.21,1.41c1.15,1.08,1.79,2.45.9,4-1,1.75-2.79,2.24-5.07.92l-8.64-5Zm2.76,13.71c1.24.72,2.23.66,2.89-.48s0-2.13-1-2.71l-6-3.47-1.84,3.2Zm2-4.82c1.08.62,2.25.8,3-.41s.17-2-1.15-2.71l-5.41-3.13-1.8,3.13Z"/><path class="cls-15" d="M573.42,328.07l2,1.15-5.13,8.89,8,4.6-1,1.7-10-5.75Z"/><path class="cls-15" d="M581,339.52c2-3.38,5.94-4,10.23-1.51s5.74,6.24,3.8,9.6-6,4-10.24,1.56S579.08,342.91,581,339.52Zm4.77,8c3.07,1.76,5.87,1.25,7.2-1.05s.36-4.95-2.71-6.72-5.86-1.27-7.18,1S582.73,345.69,585.8,347.47Z"/><path class="cls-15" d="M596.85,348.65c1.95-3.38,6.06-3.91,10.11-1.58,3.62,2.09,5.21,5.46,4.11,8.09L609,354c.47-1.4-.4-3.7-3-5.19-2.93-1.69-5.76-1.17-7.06,1.09s-.36,5,2.57,6.68c2.59,1.49,5,1.08,6,0l2.11,1.21c-1.73,2.31-5.48,2.62-9.09.53C596.47,355.9,594.89,352,596.85,348.65Z"/><path class="cls-15" d="M615.29,352.24l2,1.16-3.3,5.72,10.62-1.5,3,1.73-8,1.16,1.91,9.43L619,368.52l-1.59-7.69-4.83.7L611.18,364l-2-1.15Z"/><path class="cls-15" d="M624.37,366.88l2.07,1.2c-1,1.69,0,3.12,3.21,5,2.79,1.61,4.22,1.82,5,.55s0-1.93-3.11-4l-.57-.39c-4-2.65-5-4.33-3.75-6.48s3.78-1.82,7.5.32c4,2.33,5.38,4.7,4,7.2l-2.06-1.19c1-1.66-.23-3-3-4.61-2.56-1.48-3.78-1.62-4.41-.53-.71,1.24,0,2,2.84,3.92l.6.41c3.59,2.43,5.5,3.93,4,6.47s-4.17,2-7.92-.19C624.48,372.07,622.78,369.81,624.37,366.88Z"/><path class="cls-15" d="M655,375.18l3,1.74.05,11.27,9.76-5.6,3,1.73-6.11,10.59-2-1.14,5-8.68-10,5.8-1.87-1.08,0-11.56-5,8.68-2-1.16Z"/><path class="cls-15" d="M678.38,388.67l2.54,1.47-.27,14-2.14-1.24.1-3.17-7.36-4.25-2.7,1.67-2.15-1.24Zm.29,9.06.22-7-6,3.7Z"/><path class="cls-15" d="M685,392.48l2.15,1.24-.36,12.16,10.32-6.41,2.14,1.23L687.4,408l-2.81-1.62Z"/><path class="cls-15" d="M700.8,401.61l10.42,6-.88,1.54-8.43-4.86-1.75,3,8.13,4.69-.83,1.43-8.13-4.69-1.75,3,8.43,4.86-.9,1.55-10.43-6Z"/><path class="cls-15" d="M713.64,408.78l2.89,1.79L719,424.06l5.35-8.62,2,1.21-6.45,10.4L717,425.27l-2.51-13.5-5.35,8.62-2-1.22Z"/><path class="cls-15" d="M732,438.41c1.1-.27,1.8.36,2.18,1.94s0,2.42-1.07,2.69-1.84-.34-2.22-1.9S730.81,438.68,732,438.41Z"/><path class="cls-15" d="M740.25,480.41v2.32h-6.61l6.61,8.45v3.45l-5-6.36L728,494.63v-2.84l5.86-5.23-3-3.83H728v-2.32Z"/><path class="cls-15" d="M740.25,496.69v3.4l-10.14,9.25h10.14v2.3H728v-3.38L738.16,499H728v-2.32Z"/><path class="cls-15" d="M734.14,513.86c3.9,0,6.42,3.16,6.42,8.11s-2.53,8.09-6.42,8.09-6.47-3.16-6.47-8.09S730.23,513.86,734.14,513.86Zm-4.5,8.11c0,3.54,1.85,5.71,4.5,5.71s4.47-2.16,4.47-5.71-1.83-5.71-4.47-5.71S729.64,518.41,729.64,522Z"/><path class="cls-15" d="M740.25,530.76v2.36l-10.52,4.09,10.52,5v3l-10.52,5,10.52,4.09v2.34L728,551.91v-3.22l10.49-5-10.49-5v-3.23Z"/><path class="cls-15" d="M740.25,572.72v14.12h-2v-5.91H728v-2.29h10.27v-5.92Z"/><path class="cls-15" d="M740.25,588.8v2.31h-5.14v9.8h5.14v2.32H728v-2.32h5.14v-9.8H728V588.8Z"/><path class="cls-15" d="M740.25,606.11v12h-1.77v-9.74H735v9.39h-1.65v-9.39h-3.51v9.74H728v-12Z"/><path class="cls-15" d="M722.62,665.79l-8,4.59c-2.53,1.46-4.11.88-5-.64a2.91,2.91,0,0,1,.38-3.49c-1.51.46-3,.33-3.92-1.22-1-1.75-.54-3.53,1.74-4.85l8.64-5Zm-13.26-4.48c-1.24.72-1.68,1.61-1,2.74s1.87,1,2.87.46l6-3.47-1.84-3.19Zm3.19,4.14c-1.08.62-1.82,1.54-1.12,2.75s1.61,1.13,2.92.37l5.41-3.12-1.8-3.12Z"/><path class="cls-15" d="M708.86,673.73l-2,1.16L701.73,666l-8,4.59-1-1.7,10-5.75Z"/><path class="cls-15" d="M695.14,674.6c2,3.38.47,7.14-3.82,9.61s-8.27,1.85-10.21-1.51-.5-7.18,3.77-9.64S693.18,671.21,695.14,674.6Zm-9.27.16c-3.07,1.77-4,4.45-2.7,6.75s4.1,2.79,7.18,1,4-4.44,2.71-6.73S688.94,673,685.87,674.76Z"/><path class="cls-15" d="M679.33,683.73c1.95,3.38.36,7.21-3.69,9.54-3.62,2.09-7.34,1.79-9.06-.48l2.1-1.22c1,1.11,3.4,1.51,6,0,2.93-1.69,3.9-4.39,2.59-6.65s-4.14-2.8-7.07-1.11c-2.58,1.49-3.44,3.8-3,5.21l-2.11,1.22c-1.13-2.66.47-6,4.09-8.14C673.25,679.78,677.37,680.34,679.33,683.73Z"/><path class="cls-15" d="M667,697.92l-2,1.16-3.3-5.73-4,9.95-3,1.72,3-7.52-9.12-3.07L651,693l7.46,2.47,1.8-4.53-1.42-2.47,2-1.15Z"/><path class="cls-15" d="M649.78,698.44l-2.08,1.2c-1-1.69-2.7-1.57-5.91.29-2.79,1.61-3.69,2.74-3,4s1.7.94,5-.7l.63-.3c4.3-2.14,6.24-2.15,7.48,0s-.31,4.19-4,6.33c-4,2.33-6.75,2.31-8.24-.12l2.07-1.19c1,1.66,2.72,1.31,5.47-.28,2.57-1.48,3.3-2.46,2.67-3.55s-1.76-1-4.81.49l-.66.32c-3.9,1.89-6.15,2.79-7.62.25s.38-4.59,4.13-6.76C645.23,696,648,695.6,649.78,698.44Z"/><path class="cls-15" d="M627.25,720.85l-3,1.74L614.46,717l0,11.26-3,1.73L605.3,719.4l2-1.15,5,8.68,0-11.56,1.87-1.08,10,5.8-5-8.68,2-1.15Z"/><path class="cls-15" d="M603.9,734.33l-2.54,1.47-12-7.22,2.13-1.24,2.7,1.67,7.36-4.25-.09-3.17,2.15-1.24Zm-8-4.29,6,3.71-.21-7Z"/><path class="cls-15" d="M597.3,738.14l-2.16,1.25L584.8,733l.38,12.15L583,746.37l-.39-13.89,2.81-1.62Z"/><path class="cls-15" d="M581.46,747.29l-10.43,6-.89-1.54,8.43-4.86-1.75-3-8.13,4.69-.82-1.43,8.12-4.69-1.75-3-8.42,4.86-.9-1.56,10.43-6Z"/><path class="cls-15" d="M569,754.55l-3,1.69L552.94,752l5,8.81L556,762l-6.07-10.62,2.94-1.68,13.07,4.22-5-8.81,2-1.14Z"/><path class="cls-15" d="M534.49,757.51c-.24,1.11-1.12,1.47-2.7,1.11s-2.19-1-1.95-2.14,1.12-1.5,2.68-1.16S534.75,756.36,534.49,757.51Z"/><path class="cls-15" d="M493.5,744.38l-2-1.15,3.3-5.73L484.18,739l-3-1.72,8-1.17-1.91-9.42,2.46,1.42,1.6,7.69,4.82-.7,1.43-2.47,2,1.16Z"/><path class="cls-15" d="M479.4,736.24l-2.94-1.7-2.94-13.4-5.06,8.78-2-1.15,6.11-10.59,2.93,1.69,2.94,13.41,5.07-8.79,2,1.16Z"/><path class="cls-15" d="M467.6,722.38c-1.94,3.37-5.94,4-10.22,1.5s-5.74-6.24-3.8-9.6,6-4,10.24-1.56S469.56,719,467.6,722.38Zm-4.77-8c-3.06-1.77-5.86-1.26-7.19,1s-.37,4.95,2.71,6.72,5.86,1.27,7.18-1S465.91,716.2,462.83,714.43Z"/><path class="cls-15" d="M449.9,719.21l-2-1.18,1.71-11.16L440,713.48,437.37,712l.91-11.62-8.8,7.07-2-1.17,10.25-8.2,2.79,1.61-.95,11.56,9.53-6.61,2.79,1.61Z"/><path class="cls-15" d="M413.57,698.23l-12.22-7.05,1-1.7,5.11,2.95,5.13-8.89,2,1.15-5.13,8.88,5.13,3Z"/><path class="cls-15" d="M399.67,690.2l-2-1.15,2.57-4.45-8.48-4.9-2.57,4.45-2-1.15,6.11-10.59,2,1.15L392.72,678l8.49,4.9,2.57-4.45,2,1.15Z"/><path class="cls-15" d="M384.66,681.54l-10.42-6,.88-1.53,8.43,4.86,1.75-3-8.13-4.69.83-1.44,8.13,4.69,1.75-3-8.43-4.86.9-1.56,10.43,6Z"/><path class="cls-15" d="M339.75,637.6v-9.2c0-2.92,1.29-4,3.05-4a2.89,2.89,0,0,1,2.83,2.07c.36-1.54,1.23-2.78,3-2.78,2,0,3.33,1.29,3.33,3.93v10Zm5.33-8.56c0-1.24-.43-2.35-1.83-2.35-1.24,0-1.78.83-1.78,2.35v6.25h3.61Zm5.18-.69c0-1.43-.56-2.26-1.87-2.26s-1.83,1.1-1.83,2.26v6.94h3.7Z"/><path class="cls-15" d="M339.75,621.72v-2.31H350v-9.2h2v11.51Z"/><path class="cls-15" d="M345.86,609.39c-3.9,0-6.42-3.16-6.42-8.11s2.53-8.09,6.42-8.09,6.47,3.16,6.47,8.09S349.77,609.39,345.86,609.39Zm4.5-8.11c0-3.54-1.85-5.71-4.5-5.71s-4.47,2.16-4.47,5.71,1.83,5.71,4.47,5.71S350.36,604.84,350.36,601.28Z"/><path class="cls-15" d="M345.86,591.16c-3.9,0-6.42-3.3-6.42-8,0-4.18,2.12-7.25,4.95-7.61V578c-1.45.29-3,2.19-3,5.18,0,3.38,1.86,5.57,4.47,5.57s4.5-2.19,4.5-5.57c0-3-1.57-4.89-3-5.18v-2.43c2.87.34,5,3.43,5,7.61C352.33,587.86,349.77,591.16,345.86,591.16Z"/><path class="cls-15" d="M339.75,573.34V571h6.61l-6.61-8.45v-3.46l5,6.37,7.21-6.37V562l-5.86,5.23,3,3.83H352v2.31Z"/><path class="cls-15" d="M347.89,558.2v-2.4c1.95,0,2.71-1.55,2.71-5.26,0-3.23-.53-4.58-2-4.58s-1.66,1-1.9,4.7l-.05.69c-.29,4.8-1.26,6.49-3.74,6.49s-3.47-2.37-3.47-6.66c0-4.66,1.38-7,4.22-7.08v2.38c-1.91,0-2.5,1.71-2.5,4.89,0,3,.49,4.09,1.75,4.09,1.43,0,1.74-1,2-4.42l.05-.73c.31-4.33.66-6.73,3.59-6.73s3.8,2.63,3.8,7C352.33,555.51,351.22,558.11,347.89,558.2Z"/><path class="cls-15" d="M339.75,527.47V524l9.73-5.68-9.73-5.66v-3.47H352v2.3H342l10,5.76v2.16l-10,5.77h10v2.31Z"/><path class="cls-15" d="M339.75,500.5v-2.93L352,490.82v2.47l-2.79,1.5v8.51l2.79,1.5v2.49Zm7.71-4.78L341.27,499l6.19,3.33Z"/><path class="cls-15" d="M339.75,492.9v-2.48l10.71-5.77-10.71-5.74v-2.47L352,483.05v3.24Z"/><path class="cls-15" d="M339.75,474.62V462.57h1.77v9.74H345v-9.39h1.65v9.39h3.51v-9.74H352v12.05Z"/><path class="cls-15" d="M339.75,460.21v-3.4l10.14-9.25H339.75v-2.3H352v3.39l-10.15,9.25H352v2.31Z"/></svg>