<svg id="Layer_1" data-name="Layer 1" xmlns="http://www.w3.org/2000/svg" xmlns:xlink="http://www.w3.org/1999/xlink" viewBox="0 0 1080 1080"><defs><style>.cls-1{fill:#f1f2f2;}.cls-2{fill:#2d2d2d;stroke:url(#New_Gradient_Swatch);}.cls-2,.cls-3,.cls-4{stroke-miterlimit:10;}.cls-3{fill:#444;stroke:url(#New_Gradient_Swatch-2);}.cls-4{fill:#231f20;stroke:url(#New_Gradient_Swatch-3);}.cls-5{fill:none;}.cls-6{fill:url(#linear-gradient);}.cls-7{fill:url(#linear-gradient-2);}.cls-8{fill:url(#linear-gradient-3);}.cls-9{fill:url(#linear-gradient-4);}.cls-10{fill:url(#linear-gradient-5);}.cls-11{fill:url(#linear-gradient-6);}.cls-12{fill:url(#linear-gradient-7);}.cls-13{fill:url(#linear-gradient-8);}.cls-14{fill:url(#linear-gradient-9);}.cls-15{fill:url(#linear-gradient-10);}.cls-16{fill:#fff;}</style><linearGradient id="New_Gradient_Swatch" x1="209.33" y1="627.24" x2="495.44" y2="627.24" gradientUnits="userSpaceOnUse"><stop offset="0" stop-color="#ffe53b"/><stop offset="0.78" stop-color="#f9b61e"/></linearGradient><linearGradient id="New_Gradient_Swatch-2" x1="351.89" y1="504.22" x2="494.94" y2="504.22" xlink:href="#New_Gradient_Swatch"/><linearGradient id="New_Gradient_Swatch-3" x1="209.83" y1="504.22" x2="352.89" y2="504.22" xlink:href="#New_Gradient_Swatch"/><linearGradient id="linear-gradient" x1="205.18" y1="545.23" x2="499.59" y2="545.23" xlink:href="#New_Gradient_Swatch"/><linearGradient id="linear-gradient-2" x1="303.89" y1="460.56" x2="401.86" y2="460.56" xlink:href="#New_Gradient_Swatch"/><linearGradient id="linear-gradient-3" x1="352.88" y1="502.99" x2="401.86" y2="502.99" gradientUnits="userSpaceOnUse"><stop offset="0" stop-color="#ffe53b"/><stop offset="1" stop-color="#f9b61e"/></linearGradient><linearGradient id="linear-gradient-4" x1="303.89" y1="502.99" x2="352.88" y2="502.99" gradientUnits="userSpaceOnUse"><stop offset="0" stop-color="#bb8916"/><stop offset="0.78" stop-color="#f9b61e"/></linearGradient><linearGradient id="linear-gradient-5" x1="254.9" y1="545.41" x2="352.87" y2="545.41" xlink:href="#New_Gradient_Swatch"/><linearGradient id="linear-gradient-6" x1="303.89" y1="587.84" x2="352.87" y2="587.84" xlink:href="#linear-gradient-3"/><linearGradient id="linear-gradient-7" x1="254.9" y1="587.84" x2="303.89" y2="587.84" xlink:href="#linear-gradient-4"/><linearGradient id="linear-gradient-8" x1="352.87" y1="545.41" x2="450.85" y2="545.41" xlink:href="#New_Gradient_Swatch"/><linearGradient id="linear-gradient-9" x1="401.86" y1="587.84" x2="450.85" y2="587.84" xlink:href="#linear-gradient-3"/><linearGradient id="linear-gradient-10" x1="352.87" y1="587.84" x2="401.86" y2="587.84" xlink:href="#linear-gradient-4"/></defs><path class="cls-1" d="M544.44,460.72h13.63v16.53l18.55-16.53h20.07l-19.6,16.76,19.6,24.87H580.1l-12.81-16.52-9.22,7.83v8.69H544.44Z"/><path class="cls-1" d="M602,460.72h20.18l21.28,28.53V460.72h13.63v41.63H636.87l-21.28-28.58v28.58H602Z"/><path class="cls-1" d="M662.78,481.54c0-13.22,11.48-21.8,29.17-21.8s29.22,8.58,29.22,21.8-11.42,22-29.22,22S662.78,494.88,662.78,481.54ZM692,492c9.22,0,15.08-4.17,15.08-10.49s-5.86-10.38-15.08-10.38-15,4.12-15,10.38S682.85,492,692,492Z"/><path class="cls-1" d="M722.33,460.72h13.75l10.14,31.43,12.29-31.43h18l12.29,31.43L799,460.72h13.74l-13.8,41.63h-19.6l-11.77-30.67-11.77,30.67H736.13Z"/><path class="cls-1" d="M544.44,520.06h32.18c10.85,0,14.27,4.18,14.27,10.21,0,5-2.9,8.11-7.19,9.62,5.22,1.34,9.57,4.23,9.57,10.32,0,6.79-4.06,11.48-14.27,11.48H544.44Zm27.89,16.64c2.84,0,4.93-.23,4.93-3.48s-2-3.3-4.93-3.3H558.07v6.78Zm2.32,15.14c2.5,0,4.47-.18,4.47-3.42S577,545,574.65,545H558.07v6.84Z"/><path class="cls-1" d="M598.14,520.06h13.62v30.15h27.78v11.48h-41.4Z"/><path class="cls-1" d="M642.72,540.88c0-13.22,11.48-21.8,29.17-21.8s29.22,8.58,29.22,21.8-11.42,22-29.22,22S642.72,554.21,642.72,540.88Zm29.17,10.49c9.22,0,15.07-4.17,15.07-10.49s-5.85-10.38-15.07-10.38-15,4.12-15,10.38S662.79,551.37,671.89,551.37Z"/><path class="cls-1" d="M706.27,540.88c0-13.22,11-21.8,27.66-21.8,15.42,0,26.27,7.13,27.37,17.8H746.8c-.69-3.6-5.68-6.38-12.87-6.38-8.18,0-13.45,4.17-13.45,10.38s5.27,10.49,13.45,10.49c7.19,0,12.18-2.78,12.87-6.43h14.5c-1.1,10.78-11.95,17.91-27.37,17.91C717.23,562.85,706.27,554.21,706.27,540.88Z"/><path class="cls-1" d="M767,520.06h13.62v16.53l18.56-16.53h20.06l-19.6,16.76,19.6,24.87H802.7l-12.82-16.52L780.66,553v8.69H767Z"/><path class="cls-1" d="M820.5,548h14.14c0,3,3.13,5,12.18,5,9.22,0,11-1.28,11-3.48,0-2.55-1.57-3.08-11.66-3.71l-2-.12c-15.94-.93-23-4.87-23-13.8,0-8.52,9.11-12.81,23.43-12.81,16.35,0,25.11,5,25.63,14.2H856c0-3.19-3.77-4.35-11.6-4.35-7.36,0-9.16,1.16-9.16,3,0,2.15,1.57,3,10.9,3.6l2.38.17c14.21,1.1,23.37,2.61,23.37,13.34,0,10.49-9.16,13.85-24.53,13.85C830.64,562.85,821,558.85,820.5,548Z"/><path class="cls-1" d="M544.44,579.4h21.28l12.35,25.92,12.3-25.92h21.22V621H598v-28.7L584.39,621H571.7l-13.63-28.7V621H544.44Z"/><path class="cls-1" d="M637.56,579.4H655L676.24,621H661.68L658,613.32h-23.6L630.72,621h-14.5Zm15.77,24.12-7.13-14.9-7.13,14.9Z"/><path class="cls-1" d="M668.76,579.4h14.49l15.48,32.41,15.49-32.41h14.55L708.42,621H689Z"/><path class="cls-1" d="M733.35,579.4h42.56v10.26H747v5.86h27.78v9.34H747v5.91h28.94V621H733.35Z"/><path class="cls-1" d="M782.23,579.4h20.18l21.27,28.53V579.4h13.63V621H817.13l-21.28-28.58V621H782.23Z"/><path class="cls-1" d="M818.11,487.61h17.72v4.11h-6.42v10.79h-4.87V491.72h-6.43Z"/><path class="cls-1" d="M837.86,487.61h4.87V493h8.93v-5.4h4.87v14.9h-4.87V497.1h-8.93v5.41h-4.87Z"/><path class="cls-1" d="M859.37,487.61H874.6v3.68H864.25v2.09h9.94v3.34h-9.94v2.12H874.6v3.67H859.37Z"/><polygon class="cls-2" points="494.44 627.24 352.39 709.26 210.33 627.24 352.39 545.23 494.44 627.24"/><polygon class="cls-3" points="494.44 463.21 494.44 627.24 352.39 545.23 352.39 381.2 494.44 463.21"/><polygon class="cls-4" points="352.39 381.2 352.39 545.23 210.33 627.24 210.33 463.21 352.39 381.2"/><polygon class="cls-5" points="352.38 553.95 350.18 555.17 350.18 552.71 352.38 553.95"/><path class="cls-6" d="M352.38,711.5a24,24,0,0,1-12-3.2L217.15,637.13a24,24,0,0,1-12-20.73V474.06a24,24,0,0,1,12-20.73l123.26-71.17a24,24,0,0,1,23.94,0l123.27,71.17a24,24,0,0,1,12,20.73V616.4a24,24,0,0,1-12,20.73L364.35,708.3A24,24,0,0,1,352.38,711.5Zm0-322.23a13.56,13.56,0,0,0-6.81,1.82L222.3,462.26a13.66,13.66,0,0,0-6.81,11.8V616.4a13.67,13.67,0,0,0,6.81,11.8l123.27,71.17a13.7,13.7,0,0,0,13.63,0L482.47,628.2a13.67,13.67,0,0,0,6.81-11.8V474.06a13.66,13.66,0,0,0-6.81-11.8L359.2,391.09A13.56,13.56,0,0,0,352.38,389.27Z"/><polygon class="cls-7" points="401.86 460.56 352.88 432.28 303.89 460.56 352.88 488.84 401.86 460.56"/><polygon class="cls-8" points="401.86 517.13 401.86 460.56 352.88 488.84 352.88 545.41 401.86 517.13"/><polygon class="cls-9" points="352.88 545.41 352.88 488.84 303.89 460.56 303.89 517.13 352.88 545.41"/><polygon class="cls-10" points="352.87 545.41 303.89 517.13 254.9 545.41 303.89 573.69 352.87 545.41"/><polygon class="cls-11" points="352.87 601.98 352.87 545.41 303.89 573.69 303.89 630.26 352.87 601.98"/><polygon class="cls-12" points="303.89 630.26 303.89 573.69 254.9 545.41 254.9 601.98 303.89 630.26"/><polygon class="cls-13" points="450.85 545.41 401.86 517.13 352.87 545.41 401.86 573.69 450.85 545.41"/><polygon class="cls-14" points="450.85 601.98 450.85 545.41 401.86 573.69 401.86 630.26 450.85 601.98"/><polygon class="cls-15" points="401.86 630.26 401.86 573.69 352.87 545.41 352.87 601.98 401.86 630.26"/><polygon class="cls-5" points="358.99 534.47 395.25 513.53 395.25 471.67 358.99 492.6 358.99 534.47"/><polygon class="cls-5" points="346.26 492.6 310 471.67 310 513.53 346.26 534.47 346.26 492.6"/><polygon class="cls-5" points="352.63 439.71 316.37 460.64 352.63 481.57 388.88 460.64 352.63 439.71"/><path class="cls-16" d="M301.17,518.64l51.46,29.71,51.46-29.71V459.21l-51.46-29.7-51.46,29.7Zm98-2.86-44,25.43V490.35l44-25.42Zm-46.51-80.57,44,25.43-44,25.43-44.05-25.43Zm-46.52,29.72,44,25.42v50.86l-44-25.43Z"/><path class="cls-16" d="M352.63,437.46l-40.15,23.18,40.15,23.18,40.14-23.18Zm-36.26,23.18,36.26-20.93,36.25,20.93-36.25,20.93Z"/><path class="cls-16" d="M397.19,468.3l-40.14,23.18v46.36l40.14-23.18Zm-1.94,45.24L359,534.47V492.6l36.26-20.93Z"/><path class="cls-16" d="M308.06,514.66l40.15,23.18V491.48L308.06,468.3Zm1.94-43,36.26,20.93v41.87L310,513.54Z"/><polygon class="cls-5" points="310.25 619.15 346.5 598.22 346.5 556.36 310.25 577.29 310.25 619.15"/><polygon class="cls-5" points="297.52 577.29 261.26 556.36 261.26 598.22 297.52 619.15 297.52 577.29"/><polygon class="cls-5" points="303.88 524.4 267.63 545.33 303.88 566.26 340.14 545.33 303.88 524.4"/><path class="cls-16" d="M252.42,603.32,303.88,633l51.46-29.72V543.9l-51.46-29.71L252.42,543.9Zm98-2.85-44,25.43V575l44-25.43ZM303.88,519.9l44.05,25.43-44.05,25.43-44-25.43Zm-46.51,29.71,44,25.43V625.9l-44-25.43Z"/><path class="cls-16" d="M303.88,522.15l-40.15,23.18,40.15,23.18L344,545.33Zm-36.25,23.18,36.25-20.93,36.26,20.93-36.26,20.93Z"/><path class="cls-16" d="M348.45,553,308.3,576.16v46.37l40.15-23.18Zm-1.95,45.23-36.25,20.93V577.29l36.25-20.93Z"/><path class="cls-16" d="M259.31,599.35l40.15,23.18V576.16L259.31,553Zm1.95-43,36.26,20.93v41.86l-36.26-20.93Z"/><polygon class="cls-5" points="408.23 619.15 444.49 598.22 444.49 556.36 408.23 577.29 408.23 619.15"/><polygon class="cls-5" points="395.5 577.29 359.25 556.36 359.25 598.22 395.5 619.15 395.5 577.29"/><polygon class="cls-5" points="401.87 524.4 365.61 545.33 401.87 566.26 438.12 545.33 401.87 524.4"/><path class="cls-16" d="M350.41,603.32,401.87,633l51.46-29.72V543.9l-51.46-29.71L350.41,543.9Zm98-2.85-44,25.43V575l44-25.43ZM401.87,519.9l44,25.43-44,25.43-44.05-25.43Zm-46.52,29.71,44,25.43V625.9l-44-25.43Z"/><path class="cls-16" d="M401.87,522.15l-40.15,23.18,40.15,23.18L442,545.33Zm-36.26,23.18,36.26-20.93,36.25,20.93-36.25,20.93Z"/><path class="cls-16" d="M446.43,553l-40.14,23.17v46.37l40.14-23.18Zm-1.94,45.23-36.26,20.93V577.29l36.26-20.93Z"/><path class="cls-16" d="M357.3,599.35l40.15,23.18V576.16L357.3,553Zm1.94-43,36.26,20.93v41.86l-36.26-20.93Z"/></svg>